<svg xmlns="http://www.w3.org/2000/svg" width="24" height="24" viewBox="0 0 24 24">
    <g fill="none" fill-rule="evenodd">
        <path fill="#FF750C" d="M12 0c6.627 0 12 5.373 12 12s-5.373 12-12 12S0 18.627 0 12 5.373 0 12 0z"/>
        <path fill="#FFF" fill-rule="nonzero" d="M14.702 7.1l.592-2.385-1.446-.362-.576 2.322c-.38-.095-.77-.185-1.159-.274l.581-2.337-1.445-.362-.592 2.384a48.2 48.2 0 0 1-.924-.218l.002-.007-1.994-.5-.385 1.55s1.073.247 1.05.263c.586.146.692.536.674.844l-1.622 6.533c-.072.179-.253.447-.663.345.015.021-1.05-.263-1.05-.263l-.718 1.662 1.881.47c.35.089.693.18 1.03.268l-.598 2.412 1.445.362.592-2.387c.395.108.778.207 1.152.3l-.59 2.376 1.446.361.598-2.407c2.465.468 4.32.28 5.1-1.96.628-1.802-.032-2.842-1.329-3.52.945-.22 1.656-.843 1.846-2.132.262-1.76-1.073-2.707-2.898-3.338zm-.405 7.99c-.447 1.802-3.47.827-4.45.583l.794-3.196c.98.246 4.123.732 3.656 2.612zm.447-4.678c-.408 1.64-2.924.807-3.74.602l.72-2.898c.816.204 3.444.585 3.02 2.296z"/>
    </g>
</svg>
