<svg xmlns="http://www.w3.org/2000/svg" width="24" height="24" viewBox="0 0 24 24">
    <g fill="none" fill-rule="evenodd">
        <path fill="#59D855" d="M12 0c6.627 0 12 5.373 12 12s-5.373 12-12 12S0 18.627 0 12 5.373 0 12 0z"/>
        <path fill="#FFF" fill-rule="nonzero" d="M15.75 11.562c1.417.369 2.294 1.233 2.087 3.131-.257 2.358-2.02 2.959-4.528 3.057l-.041 2.48-1.49-.027.04-2.447a54.804 54.804 0 0 1-1.19-.034l-.04 2.46-1.489-.029.04-2.485c-.348-.008-.703-.02-1.064-.028l-1.939-.036.326-1.78s1.102.037 1.083.02c.422.007.538-.295.568-.485l.111-6.73c-.052-.305-.243-.66-.846-.672.018-.02-1.082-.02-1.082-.02l.026-1.597 2.055.039v.008c.309.005.626.005.949.004l.04-2.456 1.49.027-.04 2.409c.398-.001.798-.001 1.19.006l.04-2.393 1.49.028-.04 2.457c1.92.204 3.434.826 3.574 2.6.105 1.3-.448 2.067-1.32 2.493zm-.852 2.783c.032-1.937-3.14-1.704-4.15-1.723l-.055 3.293c1.01.017 4.175.287 4.205-1.57zm-.617-4.658c.03-1.762-2.618-1.543-3.459-1.558l-.05 2.986c.842.015 3.48.261 3.51-1.428z"/>
    </g>
</svg>
