<svg xmlns="http://www.w3.org/2000/svg" width="88" height="22" viewBox="0 0 88 22">
    <g fill="none" fill-rule="nonzero">
        <path fill="#253B80" d="M32.795 4.79H27.94a.674.674 0 0 0-.666.569l-1.963 12.445a.405.405 0 0 0 .4.467h2.317a.674.674 0 0 0 .667-.57l.53-3.356a.674.674 0 0 1 .665-.57h1.536c3.197 0 5.043-1.547 5.524-4.613.218-1.341.01-2.395-.618-3.133-.69-.81-1.914-1.24-3.538-1.24zm.56 4.545c-.266 1.742-1.596 1.742-2.883 1.742h-.732l.514-3.253a.405.405 0 0 1 .4-.341h.335c.876 0 1.703 0 2.13.5.255.298.333.74.236 1.352zm13.948-.056h-2.324a.405.405 0 0 0-.4.341l-.103.65-.162-.235c-.503-.73-1.625-.975-2.745-.975-2.569 0-4.762 1.946-5.19 4.674-.222 1.362.094 2.663.866 3.57.709.835 1.722 1.183 2.928 1.183 2.07 0 3.217-1.33 3.217-1.33l-.104.645a.405.405 0 0 0 .399.469h2.093a.674.674 0 0 0 .667-.57L47.7 9.746a.403.403 0 0 0-.398-.467zm-3.24 4.524c-.224 1.327-1.278 2.219-2.622 2.219-.675 0-1.214-.217-1.56-.627-.344-.407-.475-.987-.365-1.633.209-1.316 1.28-2.237 2.604-2.237.66 0 1.197.22 1.55.633.354.418.495 1.002.393 1.645zm15.618-4.524h-2.336a.677.677 0 0 0-.558.296l-3.221 4.745L52.2 9.76a.676.676 0 0 0-.647-.481h-2.295a.405.405 0 0 0-.384.535l2.573 7.55-2.419 3.414a.405.405 0 0 0 .33.639h2.333a.673.673 0 0 0 .554-.29l7.768-11.213a.405.405 0 0 0-.332-.635z"/>
        <path fill="#179BD7" d="M67.414 4.79h-4.855a.674.674 0 0 0-.665.569L59.93 17.804a.404.404 0 0 0 .399.467h2.49c.233 0 .43-.17.466-.398l.557-3.528a.674.674 0 0 1 .666-.57h1.536c3.198 0 5.042-1.547 5.525-4.613.217-1.341.008-2.395-.62-3.133-.69-.81-1.912-1.24-3.536-1.24zm.56 4.545c-.265 1.742-1.596 1.742-2.883 1.742h-.732l.515-3.253c.03-.196.2-.341.399-.341h.335c.876 0 1.703 0 2.13.5.255.298.333.74.236 1.352zM81.92 9.28h-2.323c-.199 0-.369.145-.399.341l-.103.65-.163-.235c-.503-.73-1.624-.975-2.744-.975-2.568 0-4.761 1.946-5.189 4.674-.221 1.362.093 2.663.865 3.57.71.835 1.722 1.183 2.928 1.183 2.07 0 3.217-1.33 3.217-1.33l-.104.645a.405.405 0 0 0 .4.469H80.4a.674.674 0 0 0 .666-.57l1.257-7.955a.405.405 0 0 0-.401-.467zm-3.24 4.524c-.223 1.327-1.278 2.219-2.622 2.219-.674 0-1.214-.217-1.56-.627-.344-.407-.473-.987-.365-1.633.21-1.316 1.28-2.237 2.604-2.237.66 0 1.197.22 1.55.633.356.418.496 1.002.393 1.645zm5.98-8.672l-1.992 12.673a.404.404 0 0 0 .399.467h2.002a.673.673 0 0 0 .667-.57L87.7 5.257a.405.405 0 0 0-.399-.468H85.06a.405.405 0 0 0-.399.342z"/>
        <path fill="#253B80" d="M5.157 20.69l.37-2.358-.826-.019H.753L3.497.917a.224.224 0 0 1 .222-.19h6.657c2.21 0 3.735.46 4.531 1.367.374.426.612.871.726 1.36.121.515.123 1.128.005 1.877l-.008.055v.48l.373.211c.285.144.541.34.756.576.32.364.526.827.613 1.376.09.564.06 1.235-.087 1.995-.17.875-.446 1.636-.818 2.26a4.646 4.646 0 0 1-1.295 1.418c-.494.351-1.08.617-1.744.787-.643.168-1.376.252-2.18.252h-.518c-.37 0-.73.134-1.013.373-.282.242-.47.576-.528.942l-.04.213-.655 4.155-.03.152c-.007.049-.021.073-.04.09a.11.11 0 0 1-.069.024H5.157z"/>
        <path fill="#179BD7" d="M16.357 5.441c-.02.127-.043.257-.068.39-.878 4.508-3.882 6.065-7.718 6.065H6.618c-.469 0-.864.34-.937.803l-1 6.342-.283 1.797a.5.5 0 0 0 .493.578h3.464c.41 0 .759-.298.823-.703l.034-.176.653-4.138.041-.228a.833.833 0 0 1 .824-.704h.518c3.356 0 5.983-1.362 6.75-5.305.322-1.647.156-3.023-.693-3.99-.27-.3-.59-.547-.948-.73z"/>
        <path fill="#222D65" d="M15.438 5.075a6.924 6.924 0 0 0-.853-.19c-.57-.087-1.146-.13-1.722-.125H7.645c-.41 0-.76.298-.822.704l-1.11 7.03-.032.205a.948.948 0 0 1 .937-.803h1.953c3.836 0 6.84-1.558 7.718-6.065.026-.133.048-.263.068-.39a4.68 4.68 0 0 0-.919-.366z"/>
        <path fill="#253B80" d="M6.823 5.464a.83.83 0 0 1 .822-.703h5.218c.618 0 1.195.04 1.722.125.356.056.707.14 1.05.25.26.087.5.188.722.305.262-1.666-.002-2.8-.902-3.826C14.462.484 12.67 0 10.377 0H3.72a.951.951 0 0 0-.94.804L.007 18.38a.572.572 0 0 0 .564.662h4.11l1.032-6.547 1.11-7.03z"/>
    </g>
</svg>
