<?xml version="1.0" encoding="UTF-8"?>
<svg width="28px" height="28px" viewBox="0 0 28 28" version="1.1" xmlns="http://www.w3.org/2000/svg" xmlns:xlink="http://www.w3.org/1999/xlink">
    <!-- Generator: Sketch 57.1 (83088) - https://sketch.com -->
    <title>github</title>
    <desc>Created with Sketch.</desc>
    <g id="github" stroke="none" stroke-width="1" fill="none" fill-rule="evenodd">
        <g id="GitHub">
            <rect id="Rectangle" x="0" y="0" width="28" height="28"></rect>
            <path d="M14,-2.62900812e-13 C6.265,-2.62900812e-13 0,6.265 0,14 C0,20.195 4.0075,25.4275 9.5725,27.2825 C10.2725,27.405 10.535,26.985 10.535,26.6175 C10.535,26.285 10.5175,25.1825 10.5175,24.01 C7,24.6575 6.09,23.1525 5.81,22.365 C5.6525,21.9625 4.97,20.72 4.375,20.3875 C3.885,20.125 3.185,19.4775 4.3575,19.46 C5.46,19.4425 6.2475,20.475 6.51,20.895 C7.77,23.0125 9.7825,22.4175 10.5875,22.05 C10.71,21.14 11.0775,20.5275 11.48,20.1775 C8.365,19.8275 5.11,18.62 5.11,13.265 C5.11,11.7425 5.6525,10.4825 6.545,9.5025 C6.405,9.1525 5.915,7.7175 6.685,5.7925 C6.685,5.7925 7.8575,5.425 10.535,7.2275 C11.655,6.9125 12.845,6.755 14.035,6.755 C15.225,6.755 16.415,6.9125 17.535,7.2275 C20.2125,5.4075 21.385,5.7925 21.385,5.7925 C22.155,7.7175 21.665,9.1525 21.525,9.5025 C22.4175,10.4825 22.96,11.725 22.96,13.265 C22.96,18.6375 19.6875,19.8275 16.5725,20.1775 C17.08,20.615 17.5175,21.455 17.5175,22.7675 C17.5175,24.64 17.5,26.145 17.5,26.6175 C17.5,26.985 17.7625,27.4225 18.4625,27.2825 C24.1612808,25.3586485 27.9984623,20.0147573 28,14 C28,6.265 21.735,-2.62900812e-13 14,-2.62900812e-13 Z" id="github" fill="#96A0D1"></path>
        </g>
    </g>
</svg>