<svg xmlns="http://www.w3.org/2000/svg" width="78" height="80" viewBox="0 0 78 80">
    <g fill="none" fill-rule="evenodd">
        <path d="M-9-8h96v96H-9z"/>
        <path fill="#4C47F7" fill-rule="nonzero" d="M28.015 71.523c-.016.151-.032.3-.05.446.987.002 2.193.006 4.17.014l.543.002c3.648.013 5.598.017 7.275.008.222-1.424 1.627-9.62 1.847-11.25.14-3.805 2.913-6.462 6.515-6.462.122 0 10.508-.07 10.958-.134 6.54-.927 9.73-5.63 10.418-15.717.407-5.972-1.49-8.724-5.17-9.992a12.686 12.686 0 0 0-2.135-.533c-1.903 14.386-7.045 21.379-19.212 23.287-1.848.29-3.903.296-7.53.169l-1.262-.047a216.319 216.319 0 0 0-2.928-.101l-.16 1.16-.043.305c-.342 2.45-3.152 18.053-3.236 18.845zm-10.277 1.104l-2.358-.033c-2.287-.031-2.093-.047-4.052-.047C4.31 72.547 0 68.269 0 61.066v-.622l.099-.613c1.94-12.029 4.905-30.908 7.878-50.383l.044-.292.067-.287c.786-3.397 2.473-6.095 5.775-7.693C15.24.51 16.58.204 18.032.08c.49-.042 6.938-.066 19.342-.072l.351-.003c1.519-.016 2.693.012 4.188.149 2.237.205 4.423.62 6.558 1.325 8.23 2.717 13.592 9.036 14.303 18.39 1.501.175 2.955.494 4.513 1.03 7.141 2.46 11.298 8.49 10.646 18.06C77.017 52.405 71.06 60.433 60 62c-3 0-8.459.005-10 0-.2 1.453-1.938 11.509-2.378 14.455l-.041.276L47.5 77c-.69 2.3-1.194 2.476-3.301 2.844-.2.035-.38.055-.584.072-.244.019-.539.033-.908.044-.614.018-1.466.03-2.57.036-1.745.01-3.715.006-7.491-.008l-.543-.002c-3.033-.012-4.243-.015-5.63-.015-4.492 0-6.918-2.404-6.918-7.16v-.167c-.477 0-1.041-.006-1.817-.016zM37.374 8.01H20.53c-2.629 0-3.77-.038-4.382 2.61C11.766 39.32 11.766 39.32 8.26 61.066c0 3.044.876 3.479 3.068 3.479 7.011 0 9.767.216 9.832 0 1.575-10.552 4.444-34.896 5.023-38.682l.056-.372.023-.146.033-.144c1.007-4.346 3.384-5.494 7.915-5.493h.099l20.157-.015C53.003 7.311 39.731 8.01 37.374 8.01zM34.31 27.71h-.058c-.467 3.06-1.556 10.226-2.36 15.51 3.104.078 7.92.393 9.963.072 7.862-1.232 10.818-5.375 12.237-15.596-1.829 0-19.235.014-19.782.014z"/>
    </g>
</svg>
