<svg xmlns="http://www.w3.org/2000/svg" width="24" height="24" viewBox="0 0 24 24">
    <g fill="none" fill-rule="nonzero">
        <circle cx="12" cy="12" r="12" fill="#2775CA"/>
        <path fill="#FFF" d="M9.8 20.3c0 .3-.2.4-.5.4C5.6 19.5 3 16.1 3 12.1s2.6-7.4 6.3-8.6c.3-.1.5.1.5.4v.7c0 .2-.1.4-.3.5-2.9 1.1-4.9 3.8-4.9 7s2.1 6 4.9 7c.2.1.3.3.3.5v.7z"/>
        <path fill="#FFF" d="M12.8 17.8c0 .2-.2.4-.4.4h-.8c-.2 0-.4-.2-.4-.4v-1.2c-1.6-.2-2.4-1.1-2.7-2.4 0-.2.1-.4.3-.4h.9c.2 0 .3.1.4.3.2.7.6 1.3 1.9 1.3 1 0 1.7-.5 1.7-1.3s-.4-1.1-1.8-1.3c-2.1-.3-3.1-.9-3.1-2.6 0-1.3 1-2.3 2.4-2.5V6.5c0-.2.2-.4.4-.4h.8c.2 0 .4.2.4.4v1.2c1.2.2 2 .9 2.2 2 0 .2-.1.4-.3.4h-.8c-.2 0-.3-.1-.4-.3-.2-.7-.7-1-1.6-1-1 0-1.5.5-1.5 1.2s.3 1.1 1.8 1.3c2.1.3 3.1.9 3.1 2.6 0 1.3-1 2.4-2.5 2.7v1.2z"/>
        <path fill="#FFF" d="M14.7 20.7c-.3.1-.5-.1-.5-.4v-.7c0-.2.1-.4.3-.5 2.9-1.1 4.9-3.8 4.9-7s-2.1-6-4.9-7c-.2-.1-.3-.3-.3-.5v-.7c0-.3.2-.4.5-.4 3.6 1.2 6.3 4.6 6.3 8.6s-2.6 7.4-6.3 8.6z"/>
    </g>
</svg>
